<?xml version="1.0" encoding="UTF-8" standalone="no"?>
<!-- Created with Inkscape (http://www.inkscape.org/) -->

<svg
   xmlns:dc="http://purl.org/dc/elements/1.1/"
   xmlns:cc="http://creativecommons.org/ns#"
   xmlns:rdf="http://www.w3.org/1999/02/22-rdf-syntax-ns#"
   xmlns:svg="http://www.w3.org/2000/svg"
   xmlns="http://www.w3.org/2000/svg"
   xmlns:sodipodi="http://sodipodi.sourceforge.net/DTD/sodipodi-0.dtd"
   xmlns:inkscape="http://www.inkscape.org/namespaces/inkscape"
   width="647.43542mm"
   height="899.58331mm"
   viewBox="0 0 647.43542 899.58331"
   version="1.1"
   id="svg1081"
   inkscape:version="0.92.2 5c3e80d, 2017-08-06"
   sodipodi:docname="black.svg">
  <defs
     id="defs1075" />
  <sodipodi:namedview
     id="base"
     pagecolor="#ffffff"
     bordercolor="#666666"
     borderopacity="1.0"
     inkscape:pageopacity="0.0"
     inkscape:pageshadow="2"
     inkscape:zoom="0.0875"
     inkscape:cx="2233.5037"
     inkscape:cy="2183.5082"
     inkscape:document-units="mm"
     inkscape:current-layer="layer1"
     showgrid="false"
     fit-margin-top="0"
     fit-margin-left="0"
     fit-margin-right="0"
     fit-margin-bottom="0"
     inkscape:window-width="1366"
     inkscape:window-height="705"
     inkscape:window-x="0"
     inkscape:window-y="0"
     inkscape:window-maximized="1" />
  <metadata
     id="metadata1078">
    <rdf:RDF>
      <cc:Work
         rdf:about="">
        <dc:format>image/svg+xml</dc:format>
        <dc:type
           rdf:resource="http://purl.org/dc/dcmitype/StillImage" />
        <dc:title></dc:title>
      </cc:Work>
    </rdf:RDF>
  </metadata>
  <g
     inkscape:label="Layer 1"
     inkscape:groupmode="layer"
     id="layer1"
     transform="translate(398.55699,328.92853)">
    <g
       id="g1856"
       transform="translate(626.09867,-749.1488)">
      <g
         transform="translate(-147.44179,2716.5025)"
         id="g1011">
        <rect
           style="opacity:1;fill:#ffffff;fill-opacity:1;stroke:none;stroke-width:1;stroke-miterlimit:4;stroke-dasharray:none;stroke-opacity:1"
           id="rect892"
           width="647.43542"
           height="899.58331"
           x="-877.21387"
           y="-2296.2822" />
        <g
           id="g980">
          <path
             sodipodi:type="star"
             style="opacity:1;fill:#7c7c7c;fill-opacity:1;stroke:none;stroke-width:0.37419471;stroke-miterlimit:4;stroke-dasharray:none;stroke-opacity:1"
             id="path894"
             sodipodi:sides="6"
             sodipodi:cx="125.91032"
             sodipodi:cy="55.388828"
             sodipodi:r1="48.129299"
             sodipodi:r2="41.681202"
             sodipodi:arg1="1.598567"
             sodipodi:arg2="2.1221657"
             inkscape:flatsided="true"
             inkscape:rounded="0"
             inkscape:randomized="0"
             d="M 124.57391,103.49957 83.576987,78.286833 84.913398,30.176091 127.24673,7.2780868 168.24365,32.490824 166.90724,80.601565 Z"
             inkscape:transform-center-x="4.9285861e-06"
             inkscape:transform-center-y="-1.5720965e-06"
             transform="matrix(6.0080294,-0.16587976,0.1701166,5.8583965,-1319.3916,-2282.8964)" />
          <path
             style="opacity:1;fill:#292929;fill-opacity:1;stroke:none;stroke-width:2.16672206;stroke-miterlimit:4;stroke-dasharray:none;stroke-opacity:1"
             inkscape:transform-center-y="-4.7768305"
             d="m -738.40546,-1956.051 184.75405,-305.3152 170.67689,203.7692 z"
             id="path896"
             inkscape:connector-curvature="0"
             sodipodi:nodetypes="cccc"
             inkscape:transform-center-x="-0.28914027" />
          <path
             sodipodi:nodetypes="cccc"
             inkscape:connector-curvature="0"
             id="path898"
             d="m -803.94066,-1838.1249 -0.15526,-282.0734 65.69039,164.1473 z"
             inkscape:transform-center-y="-4.9875364"
             inkscape:transform-center-x="-0.18951271"
             style="opacity:1;fill:#3f3f3f;fill-opacity:1;stroke:none;stroke-width:2.16672206;stroke-miterlimit:4;stroke-dasharray:none;stroke-opacity:1" />
          <path
             style="opacity:1;fill:#0a0a0a;fill-opacity:1;stroke:none;stroke-width:2.16672206;stroke-miterlimit:4;stroke-dasharray:none;stroke-opacity:1"
             inkscape:transform-center-y="-5.2510976"
             d="m -803.94066,-1838.1249 65.5352,-117.9261 185.06457,258.8318 z"
             id="path900"
             inkscape:connector-curvature="0"
             sodipodi:nodetypes="cccc"
             inkscape:transform-center-x="-0.09691791" />
          <path
             sodipodi:nodetypes="cccc"
             inkscape:connector-curvature="0"
             id="path902"
             d="m -464.96296,-1827.6085 -273.4425,-128.4425 355.43094,-101.546 z"
             inkscape:transform-center-y="-5.658469"
             style="opacity:1;fill:#020202;fill-opacity:1;stroke:none;stroke-width:2.16672206;stroke-miterlimit:4;stroke-dasharray:none;stroke-opacity:1"
             inkscape:transform-center-x="0.42772516" />
          <path
             sodipodi:nodetypes="cccc"
             inkscape:connector-curvature="0"
             id="path904"
             d="m -553.34089,-1697.2192 -185.06457,-258.8318 273.4425,128.4425 z"
             inkscape:transform-center-y="-4.9241427"
             style="opacity:1;fill:#171717;fill-opacity:1;stroke:none;stroke-width:2.16672206;stroke-miterlimit:4;stroke-dasharray:none;stroke-opacity:1"
             inkscape:transform-center-x="0.41098992" />
          <path
             style="opacity:1;fill:#1f1f1f;fill-opacity:1;stroke:none;stroke-width:2.16672206;stroke-miterlimit:4;stroke-dasharray:none;stroke-opacity:1"
             inkscape:transform-center-x="-0.31606387"
             inkscape:transform-center-y="-4.9615843"
             d="m -464.96296,-1827.6085 81.98844,-229.9885 80.07814,219.21 z"
             id="path906"
             inkscape:connector-curvature="0"
             sodipodi:nodetypes="cccc" />
          <path
             sodipodi:nodetypes="cccc"
             inkscape:connector-curvature="0"
             id="path908"
             d="m -553.34089,-1697.2192 88.37793,-130.3893 162.06658,-10.7785 z"
             inkscape:transform-center-y="-5.1111642"
             style="opacity:1;fill:#292929;fill-opacity:1;stroke:none;stroke-width:2.16672206;stroke-miterlimit:4;stroke-dasharray:none;stroke-opacity:1"
             inkscape:transform-center-x="0.14472627" />
          <path
             style="opacity:1;fill:#000000;fill-opacity:1;stroke:none;stroke-width:2.16672206;stroke-miterlimit:4;stroke-dasharray:none;stroke-opacity:1"
             inkscape:transform-center-x="0.5943753"
             inkscape:transform-center-y="-5.2607436"
             d="m -302.89638,-1838.387 -80.07814,-219.21 79.92302,-62.8635 z"
             id="path910"
             inkscape:connector-curvature="0"
             sodipodi:nodetypes="cccc" />
          <path
             sodipodi:nodetypes="cccc"
             inkscape:connector-curvature="0"
             id="path912"
             d="m -382.97452,-2057.597 -170.67689,-203.7692 250.59991,140.9057 z"
             inkscape:transform-center-y="-4.9452787"
             style="opacity:1;fill:#060606;fill-opacity:1;stroke:none;stroke-width:2.16672206;stroke-miterlimit:4;stroke-dasharray:none;stroke-opacity:1"
             inkscape:transform-center-x="0.27095691" />
        </g>
      </g>
      <path
         style="fill:#000000;fill-opacity:1;stroke-width:0.26458332"
         d="m -933.86224,1265.6043 c -7.5633,-0.7652 -14.3955,-3.3344 -19.8728,-7.473 -9.2506,-6.9897 -15.269,-17.147 -17.1549,-28.9524 -0.8616,-5.393 -0.796,-13.2879 0.1545,-18.608 0.9682,-5.4194 3.3146,-11.538 6.0502,-15.777 5.2942,-8.2038 14.3262,-15.0534 23.2824,-17.6565 5.3173,-1.5455 6.9768,-1.7464 14.4198,-1.7457 6.3622,0 7.2809,0.058 9.9218,0.6237 6.4377,1.3783 12.0689,3.7619 16.8011,7.1116 3.0383,2.1508 7.2917,6.3039 9.4093,9.1876 2.9146,3.9691 5.6294,10.0484 6.9068,15.4665 1.1898,5.0468 1.2279,5.9201 1.3361,30.6349 l 0.1035,23.6118 -0.6638,0.6637 c -0.649,0.649 -0.7509,0.6637 -4.5939,0.6637 -2.9748,0 -4.0551,-0.091 -4.4438,-0.3752 -0.4816,-0.3518 -0.5218,-0.8395 -0.6459,-7.8322 l -0.1323,-7.4571 -2.1035,2.6992 c -6.9853,8.9635 -17.15,14.2669 -29.3819,15.3298 -3.8379,0.3335 -5.1103,0.3179 -9.3927,-0.1154 z m 13.9221,-9.5318 c 11.7581,-2.0192 20.1216,-8.941 24.57,-20.3349 1.4408,-3.6903 2.5254,-10.3185 2.513,-15.357 -0.01,-2.4583 -0.607,-8.3933 -1.047,-10.3389 -1.4743,-6.5204 -4.7266,-12.5873 -8.8908,-16.585 -5.3663,-5.1519 -11.6635,-7.7579 -20.4396,-8.4589 -13.1259,-1.0485 -23.674,3.017 -30.4824,11.7485 -3.2642,4.1862 -5.46,9.0672 -6.6357,14.7506 -0.5564,2.6898 -0.6294,3.7486 -0.6294,9.1281 0,5.381 0.072,6.4223 0.6207,8.9959 1.8296,8.5792 5.3911,14.9476 10.9864,19.6446 4.2973,3.6075 8.9228,5.696 15.1158,6.8251 2.7007,0.4924 11.4104,0.4814 14.319,-0.018 z m 265.61021,9.6321 c -7.679,-0.6493 -14.65389,-3.0214 -20.76979,-7.0637 -2.80961,-1.8571 -3.43972,-2.3937 -6.87922,-5.8596 -6.24081,-6.2887 -9.76789,-13.4785 -11.5565,-23.5573 -0.40708,-2.2938 -0.454,-7.4117 -0.5361,-58.5331 -0.09,-55.9337 -0.089,-56.0205 0.44501,-56.5547 0.4921,-0.4921 0.87241,-0.5351 4.72739,-0.5351 3.72552,0 4.24111,0.054 4.63021,0.4838 0.40319,0.4455 0.4387,3.5554 0.44741,39.2245 l 0.01,38.7406 1.36308,-1.5875 c 6.9474,-8.091 13.81342,-12.2273 23.9926,-14.454 3.19341,-0.6985 12.1014,-0.9854 16.06891,-0.5175 2.9088,0.343 8.19931,1.5727 10.41469,2.4207 2.1989,0.8416 6.0533,2.7435 7.5407,3.7207 11.01561,7.2374 17.40691,18.1237 18.94592,32.2707 0.40658,3.738 0.16549,12.8556 -0.42611,16.1146 -0.79521,4.38 -2.45949,9.4661 -4.26059,13.0203 -1.84102,3.6331 -5.72971,8.6256 -8.99382,11.5468 -7.70488,6.8955 -15.83169,10.2923 -26.669,11.1471 -3.79119,0.2991 -4.6677,0.2963 -8.49439,-0.027 z m 8.46659,-9.7619 c 8.8691,-0.8177 15.19441,-3.5876 20.5263,-8.9884 6.6363,-6.7222 9.77532,-15.2168 9.7637,-26.4217 -0.01,-9.3757 -1.7418,-16.1753 -5.6288,-22.0977 -4.6269,-7.0497 -11.06119,-11.3176 -20.03099,-13.2865 -3.09811,-0.6801 -11.5773,-0.8179 -15.2318,-0.2475 -11.7834,1.8389 -20.4792,8.7795 -24.60511,19.6387 -1.2065,3.1754 -1.97919,6.7198 -2.4106,11.0583 -0.9327,9.3801 0.88652,18.8125 4.87321,25.2678 3.32009,5.3757 7.41068,9.1876 12.64941,11.7875 3.7052,1.8388 6.97449,2.6771 13.21559,3.3885 1.6922,0.1929 4.08689,0.1585 6.87909,-0.099 z m 100.52942,9.6549 c -12.41391,-1.2321 -23.35581,-7.1417 -30.23071,-16.3273 -5.60361,-7.4871 -8.24921,-16.6724 -8.25241,-28.6522 0,-7.2837 0.65201,-12.0184 2.42501,-17.556 1.39279,-4.3501 4.0163,-9.3278 6.50129,-12.335 6.65382,-8.0522 15.43341,-12.9651 26.79102,-14.9917 1.32128,-0.2358 4.28289,-0.3541 8.86349,-0.3541 6.1527,0 7.2005,0.065 9.9219,0.6155 11.22119,2.2701 20.02999,7.619 26.14689,15.877 4.76541,6.4334 7.29059,13.9025 8.015,23.7068 0.34631,4.6882 0.23399,6.4455 -0.4435,6.9409 -0.39629,0.2898 -7.37298,0.3525 -39.2167,0.3525 h -38.7346 l 0.1823,2.3151 c 0.57351,7.2849 2.9306,14.1416 6.49941,18.9071 6.11611,8.1668 15.22471,12.2033 27.49701,12.1854 10.50599,-0.015 18.16089,-2.7915 24.30748,-8.8155 2.76301,-2.7079 2.9615,-2.7207 7.12329,-0.4616 1.66262,0.9026 3.20342,1.9165 3.424,2.2531 0.37301,0.5693 0.34833,0.6883 -0.35258,1.6997 -1.76411,2.5456 -6.19331,6.4705 -10.03602,8.8934 -4.77808,3.0126 -11.65428,5.0966 -19.04219,5.7714 -4.7471,0.4335 -6.81969,0.4291 -11.38938,-0.024 z m 39.56748,-52.2195 c 0,-1.0799 -1.06569,-5.5758 -1.85698,-7.8343 -3.91351,-11.1696 -12.97921,-18.5929 -24.92462,-20.4094 -4.04699,-0.6154 -10.3024,-0.6122 -14.08049,0.01 -10.6916,1.7528 -18.38521,7.3415 -22.987,16.698 -0.6441,1.3097 -1.42359,3.1552 -1.7322,4.1011 -0.68609,2.1029 -1.6093,6.2193 -1.61711,7.2099 l -0.01,0.7276 h 33.60211 c 32.7733,0 33.602,-0.012 33.602,-0.5001 z m -350.3083,49.6447 -0.6615,-0.3446 -0.079,-26.0537 c -0.053,-17.5949 0.015,-26.9985 0.2122,-28.9641 1.5585,-15.5683 9.7134,-26.4808 22.9105,-30.6577 4.5332,-1.4347 6.084,-1.6222 13.3366,-1.6117 6.5181,0.01 6.8501,0.035 9.7896,0.7654 8.895,2.2095 14.8235,6.1686 19.3134,12.8979 0.90521,1.3566 1.7222,2.4918 1.8157,2.5227 0.093,0.031 0.8232,-0.9633 1.6218,-2.2093 4.0009,-6.2427 10.34211,-10.6719 18.2824,-12.7697 4.4936,-1.1872 7.0143,-1.433 13.0628,-1.2736 4.40489,0.1161 5.77329,0.2517 8.08101,0.8007 7.04649,1.6764 11.75769,4.2323 16.40729,8.9011 4.69181,4.7112 7.4426,10.19 9.18081,18.2858 l 0.70641,3.2901 0.093,27.9136 0.093,27.9135 -0.5697,0.463 c -0.48519,0.3944 -1.1493,0.463 -4.4798,0.463 -3.4553,0 -3.98269,-0.059 -4.53469,-0.5056 l -0.62461,-0.5057 -0.14269,-27.474 c -0.12811,-24.66 -0.18941,-27.6908 -0.59851,-29.5907 -2.53788,-11.7861 -8.45399,-18.0965 -18.8877,-20.1463 -3.09769,-0.6086 -9.3801,-0.6168 -12.6789,-0.017 -6.6788,1.2152 -12.0235,4.5567 -15.3225,9.5796 -2.2635,3.4463 -3.7996,8.5474 -4.342,14.4198 -0.1751,1.8946 -0.2815,12.5459 -0.282,28.2292 l -7.9e-4,25.1866 -0.5881,0.4119 c -0.4673,0.3273 -1.3846,0.4119 -4.4686,0.4119 -3.3088,0 -3.962,-0.068 -4.4333,-0.4631 -0.5525,-0.4628 -0.5527,-0.4711 -0.6399,-26.3922 -0.078,-23.2398 -0.1354,-26.2173 -0.552,-28.7072 -1.2289,-7.3454 -3.4667,-12.1378 -7.6391,-16.3588 -4.8067,-4.8629 -11.7926,-7.2742 -19.7022,-6.8007 -7.074,0.4236 -12.147,2.318 -16.0936,6.0098 -4.7151,4.4107 -7.1338,10.2414 -8.0387,19.3784 -0.1826,1.8444 -0.2862,11.8616 -0.2862,27.6827 0,22.7175 -0.036,24.8229 -0.4366,25.1556 -0.6188,0.5146 -7.8912,0.649 -8.8238,0.163 z m 385.56022,0.058 c -0.32951,-0.1324 -0.71652,-0.5493 -0.85993,-0.9265 -0.16539,-0.435 -0.26069,-11.1042 -0.26069,-29.179 0,-23.8002 0.066,-29.0595 0.4019,-31.9312 0.74189,-6.3472 2.31852,-10.5023 5.5208,-14.5505 1.4065,-1.778 2.07952,-2.4254 4.32461,-4.1601 3.4535,-2.6683 6.66581,-4.1887 11.15029,-5.2776 5.42372,-1.3168 17.74362,-0.7658 19.37609,0.8667 0.64921,0.6491 0.64191,1.9322 -0.032,5.6393 -0.2888,1.589 -0.5251,2.9314 -0.5251,2.9831 0,0.052 -0.29281,0.2053 -0.65061,0.3414 -0.44198,0.168 -1.31169,0.117 -2.712,-0.159 -1.3067,-0.2576 -3.75669,-0.4209 -6.6916,-0.446 -5.2758,-0.045 -7.57249,0.3863 -10.98019,2.0629 -5.4361,2.6746 -7.97451,6.7441 -8.58282,13.7597 -0.16909,1.95 -0.27627,14.1751 -0.27799,31.6839 0,28.1542 -0.0101,28.5154 -0.53189,29.038 -0.48141,0.4814 -0.86929,0.5277 -4.29951,0.5124 -2.0737,-0.01 -4.0399,-0.1251 -4.36949,-0.2575 z"
         id="path1073"
         inkscape:connector-curvature="0" />
    </g>
  </g>
</svg>
