<?xml version="1.0" encoding="UTF-8" standalone="no"?>
<!-- Created with Inkscape (http://www.inkscape.org/) -->

<svg
   xmlns:dc="http://purl.org/dc/elements/1.1/"
   xmlns:cc="http://creativecommons.org/ns#"
   xmlns:rdf="http://www.w3.org/1999/02/22-rdf-syntax-ns#"
   xmlns:svg="http://www.w3.org/2000/svg"
   xmlns="http://www.w3.org/2000/svg"
   xmlns:sodipodi="http://sodipodi.sourceforge.net/DTD/sodipodi-0.dtd"
   xmlns:inkscape="http://www.inkscape.org/namespaces/inkscape"
   width="647.43542mm"
   height="899.58331mm"
   viewBox="0 0 647.43542 899.58331"
   version="1.1"
   id="svg1081"
   inkscape:version="0.92.2 5c3e80d, 2017-08-06"
   sodipodi:docname="amber.svg">
  <defs
     id="defs1075" />
  <sodipodi:namedview
     id="base"
     pagecolor="#ffffff"
     bordercolor="#666666"
     borderopacity="1.0"
     inkscape:pageopacity="0.0"
     inkscape:pageshadow="2"
     inkscape:zoom="0.0875"
     inkscape:cx="2233.5037"
     inkscape:cy="1726.3654"
     inkscape:document-units="mm"
     inkscape:current-layer="layer1"
     showgrid="false"
     fit-margin-top="0"
     fit-margin-left="0"
     fit-margin-right="0"
     fit-margin-bottom="0"
     inkscape:window-width="1366"
     inkscape:window-height="705"
     inkscape:window-x="0"
     inkscape:window-y="0"
     inkscape:window-maximized="1" />
  <metadata
     id="metadata1078">
    <rdf:RDF>
      <cc:Work
         rdf:about="">
        <dc:format>image/svg+xml</dc:format>
        <dc:type
           rdf:resource="http://purl.org/dc/dcmitype/StillImage" />
        <dc:title></dc:title>
      </cc:Work>
    </rdf:RDF>
  </metadata>
  <g
     inkscape:label="Layer 1"
     inkscape:groupmode="layer"
     id="layer1"
     transform="translate(398.55699,328.92853)">
    <g
       id="g1767"
       transform="translate(423.50342,-743.1012)">
      <g
         transform="translate(1508.4662,2710.4549)"
         id="g1025">
        <rect
           y="-2296.2822"
           x="-2330.5266"
           height="899.58331"
           width="647.43542"
           id="rect890"
           style="opacity:1;fill:#ffffff;fill-opacity:1;stroke:none;stroke-width:1;stroke-miterlimit:4;stroke-dasharray:none;stroke-opacity:1" />
        <g
           id="g888"
           transform="matrix(0.69716222,0,0,0.67979905,-591.49681,-692.12283)">
          <path
             transform="matrix(8.6178356,-0.24401294,0.24401294,8.6178356,-3128.6944,-2340.0644)"
             inkscape:transform-center-y="-1.5720965e-06"
             inkscape:transform-center-x="4.9285861e-06"
             d="M 124.57391,103.49957 83.576987,78.286833 84.913398,30.176091 127.24673,7.2780868 168.24365,32.490824 166.90724,80.601565 Z"
             inkscape:randomized="0"
             inkscape:rounded="0"
             inkscape:flatsided="true"
             sodipodi:arg2="2.1221657"
             sodipodi:arg1="1.598567"
             sodipodi:r2="41.681202"
             sodipodi:r1="48.129299"
             sodipodi:cy="55.388828"
             sodipodi:cx="125.91032"
             sodipodi:sides="6"
             id="path4569"
             style="opacity:1;fill:#f1bd8e;fill-opacity:1;stroke:none;stroke-width:0.37419471;stroke-miterlimit:4;stroke-dasharray:none;stroke-opacity:1"
             sodipodi:type="star" />
          <path
             inkscape:transform-center-x="-0.28914027"
             sodipodi:nodetypes="cccc"
             inkscape:connector-curvature="0"
             id="path4576"
             d="m -2295.3358,-1859.2674 265.0087,-449.1256 244.8166,299.7492 z"
             inkscape:transform-center-y="-4.7768305"
             style="opacity:1;fill:#ea9447;fill-opacity:1;stroke:none;stroke-width:3.14735699;stroke-miterlimit:4;stroke-dasharray:none;stroke-opacity:1" />
          <path
             style="opacity:1;fill:#eb9d5b;fill-opacity:1;stroke:none;stroke-width:3.14735699;stroke-miterlimit:4;stroke-dasharray:none;stroke-opacity:1"
             inkscape:transform-center-x="-0.18951271"
             inkscape:transform-center-y="-4.9875364"
             d="m -2389.3386,-1685.7953 -0.2227,-414.9365 94.2254,241.4644 z"
             id="path4579"
             inkscape:connector-curvature="0"
             sodipodi:nodetypes="cccc" />
          <path
             inkscape:transform-center-x="-0.09691791"
             sodipodi:nodetypes="cccc"
             inkscape:connector-curvature="0"
             id="path4581"
             d="m -2389.3386,-1685.7953 94.0028,-173.4721 265.4541,380.7476 z"
             inkscape:transform-center-y="-5.2510976"
             style="opacity:1;fill:#e7832e;fill-opacity:1;stroke:none;stroke-width:3.14735699;stroke-miterlimit:4;stroke-dasharray:none;stroke-opacity:1" />
          <path
             inkscape:transform-center-x="0.42772516"
             style="opacity:1;fill:#e77f28;fill-opacity:1;stroke:none;stroke-width:3.14735699;stroke-miterlimit:4;stroke-dasharray:none;stroke-opacity:1"
             inkscape:transform-center-y="-5.658469"
             d="m -1903.1136,-1670.3255 -392.2222,-188.9419 509.8253,-149.3764 z"
             id="path4583"
             inkscape:connector-curvature="0"
             sodipodi:nodetypes="cccc" />
          <path
             inkscape:transform-center-x="0.41098992"
             style="opacity:1;fill:#e88939;fill-opacity:1;stroke:none;stroke-width:3.14735699;stroke-miterlimit:4;stroke-dasharray:none;stroke-opacity:1"
             inkscape:transform-center-y="-4.9241427"
             d="m -2029.8817,-1478.5198 -265.4541,-380.7476 392.2222,188.9419 z"
             id="path4585"
             inkscape:connector-curvature="0"
             sodipodi:nodetypes="cccc" />
          <path
             sodipodi:nodetypes="cccc"
             inkscape:connector-curvature="0"
             id="path4587"
             d="m -1903.1136,-1670.3255 117.6031,-338.3183 114.863,322.4629 z"
             inkscape:transform-center-y="-4.9615843"
             inkscape:transform-center-x="-0.31606387"
             style="opacity:1;fill:#e98d40;fill-opacity:1;stroke:none;stroke-width:3.14735699;stroke-miterlimit:4;stroke-dasharray:none;stroke-opacity:1" />
          <path
             inkscape:transform-center-x="0.14472627"
             style="opacity:1;fill:#ea9447;fill-opacity:1;stroke:none;stroke-width:3.14735699;stroke-miterlimit:4;stroke-dasharray:none;stroke-opacity:1"
             inkscape:transform-center-y="-5.1111642"
             d="m -2029.8817,-1478.5198 126.7681,-191.8057 232.4661,-15.8554 z"
             id="path4589"
             inkscape:connector-curvature="0"
             sodipodi:nodetypes="cccc" />
          <path
             sodipodi:nodetypes="cccc"
             inkscape:connector-curvature="0"
             id="path4591"
             d="m -1670.6475,-1686.1809 -114.863,-322.4629 114.6405,-92.4737 z"
             inkscape:transform-center-y="-5.2607436"
             inkscape:transform-center-x="0.5943753"
             style="opacity:1;fill:#e67e25;fill-opacity:1;stroke:none;stroke-width:3.14735699;stroke-miterlimit:4;stroke-dasharray:none;stroke-opacity:1" />
          <path
             inkscape:transform-center-x="0.27095691"
             style="opacity:1;fill:#e68129;fill-opacity:1;stroke:none;stroke-width:3.14735699;stroke-miterlimit:4;stroke-dasharray:none;stroke-opacity:1"
             inkscape:transform-center-y="-4.9452787"
             d="m -1785.5105,-2008.6438 -244.8166,-299.7492 359.4571,207.2755 z"
             id="path4593"
             inkscape:connector-curvature="0"
             sodipodi:nodetypes="cccc" />
        </g>
      </g>
      <path
         style="fill:#e47c23;stroke-width:0.26458332"
         d="m -731.26712,1259.5567 c -7.5633,-0.7652 -14.3955,-3.3344 -19.8728,-7.473 -9.2506,-6.9897 -15.269,-17.147 -17.1549,-28.9524 -0.8616,-5.393 -0.796,-13.2879 0.1545,-18.608 0.9682,-5.4194 3.3146,-11.538 6.0502,-15.777 5.2942,-8.2038 14.3262,-15.0534 23.2824,-17.6565 5.3173,-1.5455 6.9768,-1.7464 14.4198,-1.7457 6.3622,0 7.2809,0.058 9.9218,0.6237 6.4377,1.3783 12.0689,3.7619 16.8011,7.1116 3.0383,2.1508 7.2917,6.3039 9.4093,9.1876 2.9146,3.9691 5.6294,10.0484 6.9068,15.4665 1.1898,5.0468 1.2279,5.9201 1.3361,30.6349 l 0.1035,23.6118 -0.6638,0.6637 c -0.649,0.649 -0.7509,0.6637 -4.5939,0.6637 -2.9748,0 -4.0551,-0.091 -4.4438,-0.3752 -0.4816,-0.3518 -0.5218,-0.8395 -0.6459,-7.8322 l -0.1323,-7.4571 -2.1035,2.6992 c -6.9853,8.9635 -17.15,14.2669 -29.3819,15.3298 -3.8379,0.3335 -5.1103,0.3179 -9.3927,-0.1154 z m 13.9221,-9.5318 c 11.7581,-2.0192 20.1216,-8.941 24.57,-20.3349 1.4408,-3.6903 2.5254,-10.3185 2.513,-15.357 -0.01,-2.4583 -0.607,-8.3933 -1.047,-10.3389 -1.4743,-6.5204 -4.7266,-12.5873 -8.8908,-16.585 -5.3663,-5.1519 -11.6635,-7.7579 -20.4396,-8.4589 -13.1259,-1.0485 -23.674,3.017 -30.4824,11.7485 -3.2642,4.1862 -5.46,9.0672 -6.6357,14.7506 -0.5564,2.6898 -0.6294,3.7486 -0.6294,9.1281 0,5.381 0.072,6.4223 0.6207,8.9959 1.8296,8.5792 5.3911,14.9476 10.9864,19.6446 4.2973,3.6075 8.9228,5.696 15.1158,6.8251 2.7007,0.4924 11.4104,0.4814 14.319,-0.018 z m 265.6102,9.6321 c -7.679,-0.6493 -14.65389,-3.0214 -20.76979,-7.0637 -2.80961,-1.8571 -3.43969,-2.3937 -6.87919,-5.8596 -6.24081,-6.2887 -9.76792,-13.4785 -11.5565,-23.5573 -0.40712,-2.2938 -0.454,-7.4117 -0.5361,-58.5331 -0.09,-55.9337 -0.089,-56.0205 0.445,-56.5547 0.4921,-0.4921 0.87239,-0.5351 4.72739,-0.5351 3.72549,0 4.24109,0.054 4.63021,0.4838 0.4032,0.4455 0.43868,3.5554 0.44738,39.2245 l 0.0101,38.7406 1.36311,-1.5875 c 6.9474,-8.091 13.81339,-12.2273 23.9926,-14.454 3.19339,-0.6985 12.10141,-0.9854 16.06889,-0.5175 2.9088,0.343 8.1993,1.5727 10.41471,2.4207 2.1989,0.8416 6.0533,2.7435 7.54071,3.7207 11.01558,7.2374 17.40688,18.1237 18.94588,32.2707 0.40662,3.738 0.1655,12.8556 -0.42608,16.1146 -0.79521,4.38 -2.45951,9.4661 -4.26061,13.0203 -1.841,3.6331 -5.72971,8.6256 -8.9938,11.5468 -7.7049,6.8955 -15.83171,10.2923 -26.66899,11.1471 -3.79122,0.2991 -4.6677,0.2963 -8.49442,-0.027 z m 8.46661,-9.7619 c 8.8691,-0.8177 15.19439,-3.5876 20.5263,-8.9884 6.63631,-6.7222 9.7753,-15.2168 9.76371,-26.4217 -0.0101,-9.3757 -1.74181,-16.1753 -5.6288,-22.0977 -4.6269,-7.0497 -11.0612,-11.3176 -20.031,-13.2865 -3.09811,-0.6801 -11.57732,-0.8179 -15.23182,-0.2475 -11.78338,1.8389 -20.4792,8.7795 -24.60509,19.6387 -1.2065,3.1754 -1.97921,6.7198 -2.41059,11.0583 -0.93271,9.3801 0.88649,18.8125 4.8732,25.2678 3.3201,5.3757 7.41069,9.1876 12.64939,11.7875 3.7052,1.8388 6.97449,2.6771 13.21559,3.3885 1.69222,0.1929 4.08691,0.1585 6.87911,-0.099 z m 100.52939,9.6549 c -12.4139,-1.2321 -23.3558,-7.1417 -30.23068,-16.3273 -5.60361,-7.4871 -8.2492,-16.6724 -8.25241,-28.6522 0,-7.2837 0.65199,-12.0184 2.42499,-17.556 1.39282,-4.3501 4.01632,-9.3278 6.50132,-12.335 6.65379,-8.0522 15.43338,-12.9651 26.79099,-14.9917 1.3213,-0.2358 4.28289,-0.3541 8.86351,-0.3541 6.1527,0 7.20048,0.065 9.92188,0.6155 11.22121,2.2701 20.03001,7.619 26.14691,15.877 4.76539,6.4334 7.2906,13.9025 8.015,23.7068 0.34629,4.6882 0.234,6.4455 -0.44349,6.9409 -0.39632,0.2898 -7.37302,0.3525 -39.2167,0.3525 h -38.7346 l 0.18229,2.3151 c 0.57349,7.2849 2.93061,14.1416 6.49941,18.9071 6.11609,8.1668 15.22469,12.2033 27.49699,12.1854 10.50599,-0.015 18.16089,-2.7915 24.3075,-8.8155 2.76299,-2.7079 2.96151,-2.7207 7.1233,-0.4616 1.66259,0.9026 3.20339,1.9165 3.424,2.2531 0.37301,0.5693 0.3483,0.6883 -0.35261,1.6997 -1.76409,2.5456 -6.19329,6.4705 -10.03599,8.8934 -4.77811,3.0126 -11.65428,5.0966 -19.04219,5.7714 -4.7471,0.4335 -6.81972,0.4291 -11.38942,-0.024 z m 39.56751,-52.2195 c 0,-1.0799 -1.06571,-5.5758 -1.857,-7.8343 -3.91351,-11.1696 -12.97919,-18.5929 -24.9246,-20.4094 -4.04701,-0.6154 -10.30239,-0.6122 -14.08049,0.01 -10.6916,1.7528 -18.3852,7.3415 -22.98702,16.698 -0.64408,1.3097 -1.42359,3.1552 -1.73218,4.1011 -0.68611,2.1029 -1.6093,6.2193 -1.6171,7.2099 l -0.01,0.7276 h 33.60208 c 32.77329,0 33.602,-0.012 33.602,-0.5001 z m -350.30831,49.6447 -0.6615,-0.3446 -0.079,-26.0537 c -0.053,-17.5949 0.015,-26.9985 0.2122,-28.9641 1.5585,-15.5683 9.71341,-26.4808 22.9105,-30.6577 4.5332,-1.4347 6.08401,-1.6222 13.33661,-1.6117 6.5181,0.01 6.85009,0.035 9.78959,0.7654 8.895,2.2095 14.82351,6.1686 19.3134,12.8979 0.90521,1.3566 1.7222,2.4918 1.81571,2.5227 0.093,0.031 0.82319,-0.9633 1.6218,-2.2093 4.0009,-6.2427 10.3421,-10.6719 18.28239,-12.7697 4.49361,-1.1872 7.0143,-1.433 13.06282,-1.2736 4.40489,0.1161 5.77328,0.2517 8.08098,0.8007 7.04652,1.6764 11.75771,4.2323 16.40732,8.9011 4.69177,4.7112 7.4426,10.19 9.18078,18.2858 l 0.70641,3.2901 0.093,27.9136 0.093,27.9135 -0.5697,0.463 c -0.4852,0.3944 -1.1493,0.463 -4.4798,0.463 -3.4553,0 -3.98272,-0.059 -4.53472,-0.5056 l -0.62457,-0.5057 -0.14272,-27.474 c -0.12808,-24.66 -0.18939,-27.6908 -0.59849,-29.5907 -2.53791,-11.7861 -8.45402,-18.0965 -18.8877,-20.1463 -3.09772,-0.6086 -9.3801,-0.6168 -12.67891,-0.017 -6.6788,1.2152 -12.0235,4.5567 -15.3225,9.5796 -2.2635,3.4463 -3.79959,8.5474 -4.342,14.4198 -0.17509,1.8946 -0.28149,12.5459 -0.28199,28.2292 l -8e-4,25.1866 -0.5881,0.4119 c -0.4673,0.3273 -1.3846,0.4119 -4.4686,0.4119 -3.3088,0 -3.962,-0.068 -4.4333,-0.4631 -0.5525,-0.4628 -0.5527,-0.4711 -0.6399,-26.3922 -0.078,-23.2398 -0.1354,-26.2173 -0.552,-28.7072 -1.2289,-7.3454 -3.4667,-12.1378 -7.6391,-16.3588 -4.8067,-4.8629 -11.7926,-7.2742 -19.7022,-6.8007 -7.074,0.4236 -12.147,2.318 -16.0936,6.0098 -4.7151,4.4107 -7.1338,10.2414 -8.0387,19.3784 -0.1826,1.8444 -0.2862,11.8616 -0.2862,27.6827 0,22.7175 -0.036,24.8229 -0.4366,25.1556 -0.6188,0.5146 -7.8912,0.649 -8.8238,0.163 z m 385.5602,0.058 c -0.32948,-0.1324 -0.71649,-0.5493 -0.85989,-0.9265 -0.16539,-0.435 -0.2607,-11.1042 -0.2607,-29.179 0,-23.8002 0.066,-29.0595 0.40191,-31.9312 0.74189,-6.3472 2.31849,-10.5023 5.52079,-14.5505 1.4065,-1.778 2.0795,-2.4254 4.32459,-4.1601 3.4535,-2.6683 6.66581,-4.1887 11.15031,-5.2776 5.42369,-1.3168 17.74359,-0.7658 19.3761,0.8667 0.64921,0.6491 0.6419,1.9322 -0.032,5.6393 -0.28882,1.589 -0.52512,2.9314 -0.52512,2.9831 0,0.052 -0.29279,0.2053 -0.65058,0.3414 -0.44202,0.168 -1.3117,0.117 -2.71201,-0.159 -1.3067,-0.2576 -3.75671,-0.4209 -6.6916,-0.446 -5.27579,-0.045 -7.57251,0.3863 -10.98021,2.0629 -5.4361,2.6746 -7.97449,6.7441 -8.58279,13.7597 -0.1691,1.95 -0.27631,14.1751 -0.278,31.6839 0,28.1542 -0.0101,28.5154 -0.53189,29.038 -0.48141,0.4814 -0.86932,0.5277 -4.29951,0.5124 -2.0737,-0.01 -4.03989,-0.1251 -4.36951,-0.2575 z"
         id="path1054"
         inkscape:connector-curvature="0" />
    </g>
  </g>
</svg>
